<?xml version="1.0" encoding="UTF-8"?>
<svg width="256px" height="242px" viewBox="0 0 256 242" version="1.1" xmlns="http://www.w3.org/2000/svg">
    <g>
        <path d="M118.431947,187.698037 L83.8340558,159.866667 L120.808495,123.153323 L256,120.191667 L118.431947,187.698037" fill="#0072C6"></path>
        <path d="M118.431947,187.698037 L256,120.191667 L244.431947,208.031407 L118.431947,187.698037" fill="#0072C6"></path>
        <path d="M118.431947,187.698037 L244.431947,208.031407 L118.431947,241.031407 L118.431947,187.698037" fill="#0072C6"></path>
        <path d="M0,158.966667 L78.9087982,106.766667 L145.143495,129.036297 L0,158.966667" fill="#0072C6"></path>
        <path d="M0,158.966667 L118.431947,187.698037 L78.9087982,106.766667 L0,158.966667" fill="#0072C6"></path>
        <path d="M78.9087982,106.766667 L118.431947,187.698037 L145.143495,129.036297 L78.9087982,106.766667" fill="#0072C6"></path>
        <path d="M78.9087982,0 L145.143495,129.036297 L78.9087982,106.766667 L78.9087982,0" fill="#0072C6"></path>
    </g>
</svg>