<?xml version="1.0" encoding="UTF-8"?>
<svg width="256px" height="153px" viewBox="0 0 256 153" version="1.1" xmlns="http://www.w3.org/2000/svg">
    <g>
        <path d="M72.392,55.438 C72.392,59.782 72.875,63.177 73.724,65.657 C74.69,68.137 75.889,70.734 77.438,73.448 C77.922,74.181 78.105,74.914 78.105,75.53 C78.105,76.496 77.555,77.462 76.455,78.428 L70.593,82.406 C69.743,83.023 68.894,83.331 68.161,83.331 C67.195,83.331 66.229,82.789 65.263,81.823 C63.714,79.926 62.398,77.912 61.315,75.897 C60.232,73.766 59.149,71.286 58.066,68.454 C51.471,75.897 43.46,79.618 34.033,79.618 C27.438,79.618 22.259,77.795 18.514,74.148 C14.769,70.501 12.897,65.657 12.897,59.615 C12.897,53.224 15.252,48.147 19.963,44.401 C24.674,40.656 31.152,38.783 39.348,38.783 C42.494,38.783 45.757,39.033 49.137,39.416 C52.517,39.799 56.013,40.532 59.626,41.265 L59.626,35.403 C59.626,29.012 58.426,24.451 56.145,21.772 C53.747,19.092 49.52,17.753 43.46,17.753 C40.797,17.753 38.017,18.136 35.237,18.902 C32.457,19.669 29.794,20.551 27.247,21.551 C25.932,22.051 25.081,22.317 24.598,22.434 C24.115,22.551 23.748,22.667 23.382,22.667 C21.833,22.667 21.1,21.434 21.1,18.969 L21.1,14.991 C21.1,13.108 21.35,11.725 21.966,10.992 C22.583,10.259 23.632,9.526 25.181,8.793 C27.797,7.444 30.927,6.261 34.571,5.295 C38.215,4.212 42.093,3.679 46.204,3.679 C56.013,3.679 63.347,6.011 68.161,10.675 C72.975,15.339 75.273,22.434 75.273,31.925 L75.273,55.438 L72.392,55.438 L72.392,55.438 Z M38.366,66.506 C40.913,66.506 43.576,66.007 46.357,65.007 C49.137,64.007 51.671,62.341 53.837,60.091 C55.152,58.66 56.13,56.98 56.613,55.047 C57.096,53.114 57.463,50.717 57.463,47.921 L57.463,44.401 C54.803,43.785 51.959,43.301 49.004,42.918 C46.049,42.535 43.093,42.385 40.255,42.385 C34.688,42.385 30.577,43.535 27.797,45.951 C25.017,48.367 23.627,51.745 23.627,56.18 C23.627,60.366 24.711,63.427 26.976,65.424 C29.124,67.537 33.186,66.506 38.366,66.506 L38.366,66.506 Z M106.926,78.428 C104.927,78.428 103.627,77.912 102.778,76.996 C101.928,76.08 101.195,74.331 100.595,71.951 L82.156,11.225 C81.556,8.728 81.307,7.211 81.307,6.361 C81.307,4.595 82.273,3.562 84.188,3.562 L91.85,3.562 C93.966,3.562 95.382,4.078 96.115,4.994 C96.964,5.91 97.581,7.661 98.181,10.041 L111.753,63.177 L124.575,10.041 C125.058,7.544 125.675,5.91 126.524,4.994 C127.374,4.078 128.907,3.562 130.906,3.562 L137.251,3.562 C139.367,3.562 140.783,4.078 141.633,4.994 C142.482,5.91 143.099,7.661 143.466,10.041 L156.404,63.927 L170.459,10.041 C171.059,7.544 171.792,5.91 172.525,4.994 C173.374,4.078 174.674,3.562 176.79,3.562 L184.085,3.562 C186,3.562 186.966,4.478 186.966,6.361 C186.966,6.977 186.85,7.661 186.716,8.461 C186.583,9.261 186.333,10.408 185.85,11.958 L167.045,71.951 C166.445,74.448 165.712,76.08 164.863,76.996 C164.013,77.912 162.597,78.428 160.715,78.428 L153.887,78.428 C151.771,78.428 150.355,77.912 149.505,76.996 C148.656,76.08 147.923,74.331 147.556,71.834 L134.851,20.572 L122.146,71.717 C121.663,74.214 121.046,75.964 120.197,76.88 C119.347,77.796 117.815,78.312 115.816,78.312 L106.926,78.312 L106.926,78.428 Z M214.587,80.34 C210.459,80.34 206.331,79.84 202.32,78.723 C198.309,77.606 195.162,76.373 193.13,75.023 C191.347,73.924 190.265,72.707 189.898,71.507 C189.532,70.307 189.415,69.224 189.415,68.258 L189.415,64.16 C189.415,61.695 190.265,60.462 191.847,60.462 C192.447,60.462 193.047,60.578 193.647,60.812 C194.247,61.045 195.162,61.445 196.229,61.845 C199.376,63.194 202.787,64.277 206.331,64.893 C209.992,65.51 213.536,65.827 217.197,65.827 C222.86,65.827 227.222,64.777 230.251,62.677 C233.281,60.578 234.913,57.528 234.913,53.664 C234.913,50.964 234.08,48.731 232.414,46.964 C230.748,45.198 227.472,43.618 222.743,42.151 L211.324,38.904 C204.729,37.087 199.843,34.374 196.696,30.776 C193.547,27.295 191.931,23.084 191.931,18.373 C191.931,14.861 192.764,11.725 194.43,9.042 C196.096,6.361 198.309,4.095 201.104,2.329 C203.899,0.562 207.081,-0.737 210.692,-1.587 C214.304,-2.437 218.082,-2.82 221.927,-2.82 C223.842,-2.82 225.874,-2.703 227.789,-2.437 C229.821,-2.17 231.736,-1.787 233.648,-1.404 C235.446,-1.02 237.245,-0.52 238.927,0.096 C240.609,0.712 241.958,1.329 242.925,1.945 C244.357,2.795 245.44,3.679 246.056,4.595 C246.673,5.511 247.039,6.844 247.039,8.494 L247.039,12.225 C247.039,14.691 246.19,15.924 244.607,15.924 C243.891,15.924 242.691,15.574 241.025,14.874 C235.446,12.458 229.338,11.225 222.743,11.225 C217.564,11.225 213.536,12.108 210.809,13.991 C208.082,15.874 206.681,18.723 206.681,22.551 C206.681,25.251 207.631,27.478 209.414,29.128 C211.197,30.778 214.82,32.428 220.016,33.894 L231.203,37.142 C237.798,38.959 242.558,41.555 245.456,44.919 C248.353,48.283 249.802,52.264 249.802,56.763 C249.802,60.392 248.969,63.677 247.419,66.477 C245.773,69.274 243.641,71.74 240.959,73.69 C238.277,75.756 235.08,77.256 231.47,78.34 C227.505,79.54 223.259,80.34 214.587,80.34 L214.587,80.34 Z" fill="#252F3E"></path>
        <path d="M240.492,111.85 C214.937,131.261 178.672,141.414 147.439,141.414 C102.528,141.414 62.148,125.69 31.652,98.512 C29.27,96.396 31.535,93.449 34.267,95.099 C67.366,114.043 107.396,125.34 148.639,125.34 C176.61,125.34 207.106,120.192 235.077,109.572 C239.088,107.922 242.524,112.483 240.492,111.85" fill="#FF9900"></path>
        <path d="M251.677,99.012 C248.478,94.865 229.651,97.112 221.173,98.045 C218.908,98.278 218.558,96.279 220.59,94.749 C235.077,84.479 258.855,87.426 261.587,90.839 C264.318,94.282 260.882,117.923 247.278,129.376 C245.363,131.026 243.448,130.176 244.381,127.843 C247.278,120.892 254.875,103.159 251.677,99.012" fill="#FF9900"></path>
    </g>
</svg>